<svg width="31" height="31" xmlns="http://www.w3.org/2000/svg"><g clip-path="url(#clip0)"><path d="M11.17 19.698l2.676-2.809 3.043 2.81h5.217l-8.294-8.128-8.227 8.127h5.585z"/><path d="M18.829 6.655l-3.947 4.014 2.61 2.675 1.337-1.338 7.324 7.291c-1.672 4.448-5.953 7.625-11.003 7.625-6.488 0-11.739-5.25-11.739-11.739.034-6.488 5.284-11.738 11.773-11.738 5.752 0 10.568 4.18 11.538 9.631l3.545 3.746c.067-.535.1-1.103.1-1.638 0-4.047-1.572-7.86-4.448-10.736A15.078 15.078 0 0015.183 0c-4.08 0-7.859 1.572-10.735 4.448C1.572 7.324 0 11.103 0 15.184c0 4.08 1.572 7.859 4.448 10.735a15.078 15.078 0 0010.736 4.448c4.046 0 7.859-1.572 10.735-4.448 1.772-1.773 3.043-3.88 3.746-6.187.133-.401.234-.836.334-1.238l-3.077-3.244-8.093-8.595z"/></g><defs><clipPath id="clip0"><path d="M0 0h30.334v30.334H0z"/></clipPath></defs></svg>