<?xml version="1.0" encoding="UTF-8"?><!DOCTYPE svg PUBLIC "-//W3C//DTD SVG 1.1//EN" "http://www.w3.org/Graphics/SVG/1.1/DTD/svg11.dtd"><svg xmlns="http://www.w3.org/2000/svg" xmlns:xlink="http://www.w3.org/1999/xlink"><defs>
    <clipPath id="clip0">
      <rect width="30.3335" height="30.3335"/>
    </clipPath>
  
    <clipPath id="clip0">
      <rect width="12" height="12"/>
    </clipPath>
  
    <clipPath id="clip0">
      <rect width="10.6522" height="10.6522" transform="translate(0.673828 0.326172)"/>
    </clipPath>
  </defs><symbol id="logo" viewBox="0 0 31 31">
  <g clip-path="url(#clip0)">
    <path d="M11.1701 19.6984L13.8456 16.8891L16.889 19.6984H22.1062L13.8121 11.5715L5.58496 19.6984H11.1701Z"/>
    <path d="M18.8288 6.65531L14.8825 10.6686L17.4911 13.3441L18.8288 12.0063L26.153 19.297C24.4808 23.7451 20.2 26.9222 15.15 26.9222C8.66193 26.9222 3.41126 21.6716 3.41126 15.1835C3.44471 8.69538 8.69538 3.44471 15.1835 3.44471C20.9358 3.44471 25.7517 7.62518 26.7216 13.0765L30.2666 16.8222C30.3335 16.2871 30.3669 15.7186 30.3669 15.1835C30.3669 11.1368 28.7951 7.32418 25.9189 4.44802C23.0427 1.57186 19.2302 0 15.1835 0C11.1033 0 7.32418 1.57186 4.44802 4.44802C1.57186 7.32418 0 11.1033 0 15.1835C0 19.2636 1.57186 23.0427 4.44802 25.9189C7.32418 28.7951 11.1368 30.3669 15.1835 30.3669C19.2302 30.3669 23.0427 28.7951 25.9189 25.9189C27.6914 24.1464 28.9623 22.0394 29.6646 19.7318C29.7984 19.3305 29.8987 18.8957 29.9991 18.4944L26.9222 15.2504L18.8288 6.65531Z"/>
  </g>
  
</symbol><symbol id="vkontakte" viewBox="0 0 12 12">
  <g clip-path="url(#clip0)">
    <path d="M11.8931 8.68356C11.8608 8.62955 11.6613 8.19602 10.7012 7.30495C9.69614 6.37188 9.83115 6.5234 11.0417 4.91003C11.779 3.92745 12.0738 3.32741 11.9816 3.07089C11.8938 2.82637 11.3515 2.89088 11.3515 2.89088L9.54838 2.90138C9.54838 2.90138 9.41487 2.88337 9.31511 2.94263C9.21835 3.00113 9.1561 3.13614 9.1561 3.13614C9.1561 3.13614 8.87033 3.8967 8.4893 4.54325C7.68599 5.9076 7.36421 5.9796 7.23295 5.89485C6.92768 5.69758 7.00419 5.10129 7.00419 4.67826C7.00419 3.35591 7.20445 2.80462 6.61341 2.66211C6.41689 2.61485 6.27288 2.58335 5.7711 2.5781C5.12755 2.57135 4.58226 2.58035 4.27398 2.73111C4.06847 2.83162 3.91021 3.05589 4.00696 3.06864C4.12622 3.08439 4.39624 3.14139 4.5395 3.33641C4.72477 3.58768 4.71802 4.15322 4.71802 4.15322C4.71802 4.15322 4.82453 5.70958 4.46975 5.9031C4.22598 6.03586 3.89221 5.76509 3.1759 4.52675C2.80913 3.89295 2.53161 3.19165 2.53161 3.19165C2.53161 3.19165 2.47835 3.06114 2.38309 2.99138C2.26759 2.90663 2.10557 2.87962 2.10557 2.87962L0.390947 2.89013C0.390947 2.89013 0.133677 2.89763 0.0391703 3.00938C-0.0448359 3.10914 0.0324198 3.31466 0.0324198 3.31466C0.0324198 3.31466 1.37502 6.45514 2.89463 8.03851C4.28899 9.48986 5.8716 9.39461 5.8716 9.39461H6.58866C6.58866 9.39461 6.80542 9.37061 6.91568 9.25135C7.01769 9.14184 7.01394 8.93632 7.01394 8.93632C7.01394 8.93632 6.99969 7.974 7.44672 7.83224C7.887 7.69273 8.45255 8.76231 9.05184 9.17409C9.50487 9.48536 9.84915 9.41711 9.84915 9.41711L11.452 9.39461C11.452 9.39461 12.2906 9.34285 11.8931 8.68356Z"/>
  </g>
  
</symbol><symbol id="facebook" viewBox="0 0 12 11">
  <g clip-path="url(#clip0)">
    <path d="M6.66572 3.98786V2.65633C6.66572 2.28883 6.96398 1.99057 7.33148 1.99057H7.99724V0.326172H6.66572C5.56255 0.326172 4.66844 1.22029 4.66844 2.32345V3.98786H3.33691V5.65226H4.66844V10.9783H6.66572V5.65226H7.99724L8.663 3.98786H6.66572Z"/>
  </g>
  
</symbol><symbol id="instagram" viewBox="0 0 13 13">
  <path d="M9.41239 0H3.58745C1.60933 0 0 1.60941 0 3.58753V9.41247C0 11.3907 1.60933 13 3.58745 13H9.41239C11.3907 13 13 11.3906 13 9.41247V3.58753C13.0001 1.60941 11.3907 0 9.41239 0ZM11.8467 9.41247C11.8467 10.7547 10.7547 11.8466 9.41247 11.8466H3.58745C2.24533 11.8467 1.15342 10.7547 1.15342 9.41247V3.58753C1.15342 2.24541 2.24533 1.15342 3.58745 1.15342H9.41239C10.7546 1.15342 11.8466 2.24541 11.8466 3.58753L11.8467 9.41247Z"/>
  <path d="M6.50006 3.15033C4.65297 3.15033 3.1503 4.65301 3.1503 6.50011C3.1503 8.34713 4.65297 9.84973 6.50006 9.84973C8.34715 9.84973 9.84982 8.34713 9.84982 6.50011C9.84982 4.65301 8.34715 3.15033 6.50006 3.15033ZM6.50006 8.69623C5.28905 8.69623 4.30372 7.71105 4.30372 6.50003C4.30372 5.28893 5.28897 4.30368 6.50006 4.30368C7.71115 4.30368 8.69641 5.28893 8.69641 6.50003C8.69641 7.71105 7.71108 8.69623 6.50006 8.69623Z"/>
  <path d="M9.99027 2.1724C9.76803 2.1724 9.54971 2.26236 9.39276 2.41999C9.23504 2.57686 9.14437 2.79524 9.14437 3.01823C9.14437 3.24053 9.23512 3.45883 9.39276 3.61646C9.54963 3.77333 9.76803 3.86406 9.99027 3.86406C10.2133 3.86406 10.4309 3.77333 10.5885 3.61646C10.7462 3.45883 10.8362 3.24045 10.8362 3.01823C10.8362 2.79524 10.7462 2.57686 10.5885 2.41999C10.4317 2.26236 10.2133 2.1724 9.99027 2.1724Z"/>
</symbol><symbol id="halfmoon" viewBox="0 0 20 20">
  <path d="M19.5272 11.382C19.3228 11.3307 19.1183 11.382 18.9394 11.5103C18.2748 12.0745 17.5081 12.5362 16.6646 12.844C15.8723 13.1518 15.0033 13.3057 14.0831 13.3057C12.0128 13.3057 10.1215 12.4593 8.76681 11.0999C7.41217 9.74052 6.56872 7.84251 6.56872 5.76497C6.56872 4.89291 6.72207 4.0465 6.97767 3.27704C7.25882 2.45628 7.66777 1.71247 8.20451 1.07125C8.43454 0.789119 8.38343 0.378739 8.10227 0.147901C7.92336 0.0196574 7.71888 -0.0316401 7.51441 0.0196573C5.34188 0.609578 3.4505 1.91766 2.09586 3.66177C0.792336 5.38024 0 7.50908 0 9.84311C0 12.6388 1.12461 15.178 2.96487 17.0247C4.80513 18.8715 7.3355 20 10.1215 20C12.4729 20 14.6454 19.1792 16.3835 17.8199C18.147 16.4348 19.425 14.4599 19.9618 12.2028C20.0895 11.8181 19.8851 11.459 19.5272 11.382ZM15.6167 16.7426C14.1342 17.9225 12.2429 18.6406 10.1726 18.6406C7.74444 18.6406 5.54635 17.6403 3.96168 16.0501C2.37701 14.4599 1.3802 12.2541 1.3802 9.81746C1.3802 7.79122 2.04474 5.94451 3.1949 4.45688C3.98724 3.43094 4.98405 2.58453 6.13421 1.99461C6.00642 2.27674 5.87862 2.55888 5.77638 2.86666C5.44411 3.79002 5.29076 4.76467 5.29076 5.79062C5.29076 8.22724 6.28757 10.4587 7.87224 12.0489C9.45691 13.6391 11.6806 14.6394 14.1087 14.6394C15.1822 14.6394 16.2045 14.4599 17.1502 14.1008C17.4825 13.9726 17.8148 13.8443 18.1215 13.6904C17.5081 14.8703 16.6646 15.9219 15.6167 16.7426Z" fill="white"/>
</symbol><symbol id="marker" viewBox="0 0 9 12">
  <path d="M4.49981 0C2.01874 0 0 1.98191 0 4.41796C0 5.05338 0.132472 5.66006 0.39354 6.2213C1.51862 8.63833 3.67571 11.1902 4.31017 11.9146C4.35771 11.9688 4.42701 12 4.49994 12C4.57287 12 4.64217 11.9688 4.6897 11.9146C5.32392 11.1903 7.48101 8.63857 8.60646 6.2213C8.86765 5.66006 9 5.05338 9 4.41796C8.99975 1.98191 6.98101 0 4.49981 0ZM4.49981 6.71267C3.21099 6.71267 2.16234 5.68315 2.16234 4.41784C2.16234 3.15241 3.21099 2.12289 4.49981 2.12289C5.78864 2.12289 6.83728 3.15241 6.83728 4.41784C6.83741 5.68315 5.78876 6.71267 4.49981 6.71267Z" fill="white"/>
</symbol><symbol id="start" viewBox="0 0 15 14">
  <path d="M7.74525 10.6055L7.5 10.4674L7.25475 10.6055L3.63071 12.6453L4.57642 8.85073L4.6535 8.54147L4.40569 8.34105L1.28779 5.81937L5.43318 5.48739L5.72674 5.46388L5.84852 5.19573L7.5 1.55927L9.15151 5.19574L9.27329 5.46388L9.56685 5.48739L13.7122 5.81937L10.5943 8.34105L10.3465 8.54147L10.4236 8.85073L11.3693 12.6453L7.74525 10.6055Z"/>
</symbol><symbol id="sun" viewBox="0 0 22 22">
  <path d="M14.7146 7.10055C13.7375 6.11113 12.358 5.47092 10.8635 5.47092C9.36907 5.47092 7.98957 6.08203 7.01243 7.10055C6.03528 8.08996 5.40302 9.48679 5.40302 11C5.40302 12.5132 6.03528 13.9101 7.01243 14.8995C7.98957 15.8889 9.36907 16.5291 10.8635 16.5291C12.358 16.5291 13.7375 15.918 14.7146 14.8995C15.6918 13.9101 16.324 12.5132 16.324 11C16.324 9.48679 15.7205 8.08996 14.7146 7.10055ZM13.68 13.8519C12.9615 14.5794 11.9556 15.0159 10.8635 15.0159C9.77142 15.0159 8.76554 14.5794 8.04705 13.8519C7.32856 13.1243 6.89747 12.1058 6.89747 11C6.89747 9.89419 7.32856 8.87568 8.04705 8.14817C8.76554 7.42065 9.77142 6.98415 10.8635 6.98415C11.9556 6.98415 12.9615 7.42065 13.68 8.14817C14.3985 8.87568 14.8296 9.89419 14.8296 11C14.8296 12.1058 14.3985 13.1243 13.68 13.8519Z" fill="white"/>
  <path d="M20.9798 10.2434H18.7669C18.3645 10.2434 18.0196 10.5926 18.0196 11C18.0196 11.4074 18.3645 11.7566 18.7669 11.7566H20.9798C21.3822 11.7566 21.727 11.4074 21.727 11C21.727 10.5926 21.3822 10.2434 20.9798 10.2434Z" fill="white"/>
  <path d="M10.8635 18.246C10.4612 18.246 10.1163 18.5952 10.1163 19.0026V21.2434C10.1163 21.6508 10.4612 22 10.8635 22C11.2659 22 11.6107 21.6508 11.6107 21.2434V19.0026C11.6107 18.5952 11.2659 18.246 10.8635 18.246Z" fill="white"/>
  <path d="M18.537 17.7222L16.9563 16.1216C16.6977 15.8306 16.2091 15.8306 15.9217 16.1216C15.6343 16.4126 15.6343 16.8782 15.9217 17.1693L17.5024 18.7698C17.7898 19.0608 18.2496 19.0608 18.537 18.7698C18.8244 18.4788 18.8244 18.0132 18.537 17.7222Z" fill="white"/>
  <path d="M10.8635 0C10.4612 0 10.1163 0.349205 10.1163 0.756611V2.99735C10.1163 3.40475 10.4612 3.75396 10.8635 3.75396C11.2659 3.75396 11.6107 3.40475 11.6107 2.99735V0.756611C11.6107 0.349205 11.2659 0 10.8635 0Z" fill="white"/>
  <path d="M18.5657 3.23018C18.2783 2.93918 17.8185 2.93918 17.5311 3.23018L15.9504 4.8307C15.663 5.12171 15.663 5.58732 15.9504 5.87832C16.2091 6.16932 16.6976 6.16932 16.985 5.87832L18.5657 4.2778C18.8531 3.98679 18.8531 3.52118 18.5657 3.23018Z" fill="white"/>
  <path d="M2.96017 10.2434H0.747226C0.344874 10.2434 0 10.5926 0 11C0 11.4074 0.316134 11.7566 0.747226 11.7566H2.96017C3.36252 11.7566 3.70739 11.4074 3.70739 11C3.70739 10.5926 3.36252 10.2434 2.96017 10.2434Z" fill="white"/>
  <path d="M5.77664 16.1216C5.51798 15.8306 5.02941 15.8306 4.74202 16.1216L3.16134 17.7222C2.87395 18.0132 2.87395 18.4788 3.16134 18.7698C3.44874 19.0608 3.90857 19.0608 4.19597 18.7698L5.77664 17.1693C6.06403 16.8782 6.06403 16.4126 5.77664 16.1216Z" fill="white"/>
  <path d="M5.77664 4.8307L4.19597 3.23018C3.90857 2.93918 3.44874 2.93918 3.16134 3.23018C2.87395 3.52118 2.87395 3.98679 3.16134 4.2778L4.74202 5.87832C5.02941 6.16932 5.48924 6.16932 5.77664 5.87832C6.06403 5.58732 6.06403 5.12171 5.77664 4.8307Z" fill="white"/>
</symbol></svg>