<svg width="22" height="22" fill="none" xmlns="http://www.w3.org/2000/svg"><path d="M14.715 7.1c-.977-.989-2.357-1.63-3.851-1.63A5.328 5.328 0 007.011 7.1 5.583 5.583 0 005.403 11c0 1.513.632 2.91 1.61 3.9.977.989 2.356 1.63 3.85 1.63a5.327 5.327 0 003.852-1.63 5.582 5.582 0 001.609-3.9c0-1.513-.604-2.91-1.61-3.9zm-1.035 6.752a3.95 3.95 0 01-2.816 1.164 3.95 3.95 0 01-2.817-1.164A4.052 4.052 0 016.897 11c0-1.106.432-2.124 1.15-2.852a3.95 3.95 0 012.816-1.164 3.95 3.95 0 012.817 1.164A4.051 4.051 0 0114.83 11a4.052 4.052 0 01-1.15 2.852zm7.3-3.609h-2.213a.766.766 0 00-.747.757c0 .407.345.757.747.757h2.213c.402 0 .747-.35.747-.757a.766.766 0 00-.747-.757zm-10.116 8.003a.766.766 0 00-.748.757v2.24c0 .408.345.757.748.757.402 0 .747-.35.747-.757v-2.24a.766.766 0 00-.748-.757zm7.673-.524l-1.58-1.6c-.26-.291-.748-.291-1.035 0a.744.744 0 000 1.047l1.58 1.6a.722.722 0 001.035 0 .744.744 0 000-1.047zM10.864 0a.766.766 0 00-.748.757v2.24c0 .408.345.757.748.757.402 0 .747-.35.747-.757V.757A.766.766 0 0010.863 0zm7.702 3.23a.722.722 0 00-1.035 0l-1.58 1.6a.744.744 0 000 1.048c.258.291.747.291 1.034 0l1.58-1.6a.744.744 0 000-1.048zM2.96 10.243H.747A.766.766 0 000 11c0 .407.316.757.747.757H2.96c.403 0 .747-.35.747-.757a.766.766 0 00-.747-.757zm2.817 5.879c-.259-.291-.748-.291-1.035 0l-1.58 1.6a.744.744 0 000 1.048.722.722 0 001.034 0l1.58-1.6a.744.744 0 000-1.048zm0-11.292l-1.581-1.6a.722.722 0 00-1.035 0 .744.744 0 000 1.048l1.581 1.6a.722.722 0 001.035 0 .744.744 0 000-1.047z" fill="#fff"/></svg>